<!--?xml version="1.0" encoding="utf-8"?-->
<!-- Generator: Adobe Illustrator 18.1.1, SVG Export Plug-In . SVG Version: 6.00 Build 0)  -->

<svg version="1.1" id="_x32_" xmlns="http://www.w3.org/2000/svg" xmlns:xlink="http://www.w3.org/1999/xlink" x="0px" y="0px" viewBox="0 0 512 512" style="width: 256px; height: 256px; opacity: 1;" xml:space="preserve">
<style type="text/css">
	.st0{fill:#4B4B4B;}
</style>
<g>
	<path class="st0" d="M170.664,407.439c47.082,0,79.453-6.111,79.948-11.991c2.047-24.552-29.815-37.379-42.664-42.189
		c-6.888-2.578-16.922-10.104-16.922-14.777c0-3.095,0-6.974,0-12.276c3.987-4.422,6.996-13.422,8.798-23.603
		c4.198-1.5,6.59-3.905,9.586-14.379c3.19-11.173-4.793-10.802-4.793-10.802c6.452-21.353-2.034-41.422-16.263-39.956
		c-9.81-17.156-42.672,3.922-52.966,2.456c0,5.888,2.449,10.302,2.449,10.302c-3.582,6.81-2.203,20.353-1.202,27.198
		c-0.574,0-7.79,0.069-4.725,10.802c2.983,10.474,5.384,12.879,9.582,14.379c1.794,10.181,4.811,19.181,8.811,23.603
		c0,5.302,0,9.181,0,12.276c0,4.672-10.668,12.57-16.944,14.777c-12.918,4.551-44.703,17.637-42.656,42.189
		C91.199,401.328,123.57,407.439,170.664,407.439z" style="fill: rgb(223, 86, 86);"></path>
	<path class="st0" d="M317.794,61.353c0-24.337-19.802-44.138-44.138-44.138h-35.31c-24.336,0-44.138,19.801-44.138,44.138v79.448
		h123.586V61.353z M282.483,79.009c0,4.879-3.948,8.828-8.828,8.828h-35.31c-4.879,0-8.828-3.948-8.828-8.828V61.353
		c0-4.88,3.948-8.828,8.828-8.828h35.31c4.879,0,8.828,3.948,8.828,8.828V79.009z" style="fill: rgb(223, 86, 86);"></path>
	<path class="st0" d="M461.948,124.026h-126.5v16.776c0,9.707-7.948,17.655-17.655,17.655H194.207
		c-9.707,0-17.655-7.948-17.655-17.655v-16.776h-126.5C22.423,124.026,0,146.448,0,174.077v270.656
		c0,27.628,22.423,50.052,50.052,50.052h411.897c27.63,0,50.052-22.423,50.052-50.052V174.077
		C512,146.448,489.578,124.026,461.948,124.026z M459.034,454.181H52.966V189.353h406.069V454.181z" style="fill: rgb(223, 86, 86);"></path>
	<rect x="294.992" y="265.862" class="st0" width="111.819" height="26.483" style="fill: rgb(223, 86, 86);"></rect>
	<rect x="294.992" y="342.379" class="st0" width="76.508" height="26.483" style="fill: rgb(223, 86, 86);"></rect>
</g>
</svg>
