<!--?xml version="1.0" encoding="utf-8"?-->
<!-- Generator: Adobe Illustrator 18.1.1, SVG Export Plug-In . SVG Version: 6.00 Build 0)  -->

<svg version="1.1" id="_x32_" xmlns="http://www.w3.org/2000/svg" xmlns:xlink="http://www.w3.org/1999/xlink" x="0px" y="0px" viewBox="0 0 512 512" style="width: 256px; height: 256px; opacity: 1;" xml:space="preserve">
<style type="text/css">
	.st0{fill:#4B4B4B;}
</style>
<g>
	<path class="st0" d="M426.16,54.694c-13.842,0-25.068,11.225-25.068,25.068v157.246h-20.768V31.148
		c0-13.843-11.226-25.068-25.068-25.068c-13.843,0-25.068,11.225-25.068,25.068v205.859h-20.759V25.068
		C309.428,11.225,298.202,0,284.36,0c-13.843,0-25.068,11.225-25.068,25.068v211.94h-23.795V73.691
		c0-13.843-11.226-25.068-25.068-25.068c-13.843,0-25.068,11.225-25.068,25.068v188.384v33.427c0.107,0.943-0.819,3.863-2.6,5.67
		c-0.845,0.926-1.771,1.576-2.572,1.95c-0.828,0.365-1.487,0.534-2.412,0.543c-0.829-0.009-1.924-0.134-3.677-0.828
		c-2.59-1.042-6.738-3.552-11.911-9.259c-5.154-5.679-11.189-14.492-17.297-27.186c-14.208-29.43-23.848-45.08-31.317-54.739
		c-3.784-4.834-7.024-8.243-10.798-11.118c-1.896-1.433-3.962-2.724-6.41-3.801c-2.43-1.068-5.288-1.914-8.43-2.172
		c-7.754-0.65-15.293,2.288-20.564,8.03c-5.261,5.733-7.549,13.496-6.24,21.168c0.382,2.137,1.904,9.882,9.222,30.784
		c7.317,20.875,20.466,54.836,44.207,108.783c18.392,41.697,46.299,78.008,78.729,104.625c16.238,13.3,33.65,24.169,51.846,31.861
		c18.178,7.672,37.21,12.178,56.448,12.186c26.973,0.044,50.866-6.908,70.46-18.267c14.715-8.502,27.026-19.344,37.13-31.166
		c15.151-17.768,25.451-37.692,32.154-56.688c6.676-19.086,9.854-37.086,9.898-52.647c0-2.458,0-4.451,0-6.08
		c0-4.416,0-6.063,0-6.08V79.762C451.228,65.919,440.003,54.694,426.16,54.694z" style="fill: rgb(223, 86, 86);"></path>
</g>
</svg>
